<svg xmlns="http://www.w3.org/2000/svg" xml:space="preserve" width="2048" height="2048" style="shape-rendering:geometricPrecision;text-rendering:geometricPrecision;image-rendering:optimizeQuality;fill-rule:evenodd;clip-rule:evenodd"><defs><style>.fil0{fill:#424242;fill-rule:nonzero}</style></defs><g id="Layer_x0020_1"><path class="fil0" d="M379.419 1426.25c-104.139-161.332-139.918-348.799-112.788-526.636 27.132-177.862 117.233-346.19 264.84-469.216 147.791-123.18 329.909-181.407 510.004-175.808 180.295 5.604 358.539 75.013 498.349 207.093l-43.75 46.5c-128.175-121.088-291.388-184.714-456.35-189.842-165.157-5.134-332.105 48.207-467.502 161.056-135.024 112.538-217.473 266.704-242.34 429.717-24.873 163.039 7.89 334.848 103.287 482.635l-53.75 34.5z"/><path class="fil0" d="m1546.29 350.714 26.19 151.48 5.43 31.419-31.55 5.457-142.39 24.622-10.75-63 110.83-19.166-20.76-120.061zM1663.67 562.401c109.82 166.98 148.732 361.712 122.093 546.95-26.656 185.362-118.87 361.304-271.275 490.556-152.623 129.436-341.608 191.616-529.111 187.393-187.618-4.226-373.696-74.871-520.37-211.079l43.5-46.75c134.867 125.242 305.83 190.198 478.12 194.078 172.403 3.883 346.205-53.319 486.61-172.393 140.041-118.766 224.777-280.453 249.275-450.805 24.516-170.476-11.206-349.551-112.094-502.95l53.251-35z"/><path class="fil0" d="m459.824 1692.72-28.649-157.64-5.686-31.29 31.435-5.71 148.173-26.93 11.251 62.75-116.738 21.22 22.963 126.34zM1407.71 593.898c-68.641-61.28-152.043-106.367-244.216-129.278 41.674 50.492 79.673 104.093 111.962 160.916l6.517 11.466 12.677-3.641c38.406-11.035 76.126-24.281 113.06-39.463zM1090.411 451.4a581.855 581.855 0 0 0-42.952-3.31V671.54l17.422-.696c49.343-1.972 98.442-7.848 146.884-17.408l23.41-4.62-12.293-20.45c-37.995-63.2-83.211-122.1-132.47-176.967zm-89.87-3.31a580.958 580.958 0 0 0-36.653 2.627c-49.5 55.065-94.96 114.2-133.117 177.682l-12.324 20.504 23.48 4.574c46.55 9.068 93.697 14.852 141.075 17.075l17.54.82V448.09zM891.63 462.896c-94.741 22.261-180.468 67.894-250.766 130.484 38.608 15.531 78 29.093 118.082 40.353l12.626 3.547 6.474-11.404c32.696-57.596 71.266-111.885 113.584-162.98zM604.327 628.92c-91.649 97.314-149.822 226.51-156.13 369.19h223.504l.56-16.175c3.44-99.226 27.958-194.317 69.123-284.475l8.003-17.528-18.47-5.49c-43.017-12.789-85.249-28.09-126.59-45.523zm-156.328 416.107c4.766 132.854 54.494 254.25 134.423 349.428l-6.861-14.876c47.634-21.425 96.509-40.084 146.46-55.376l17.53-5.366-6.918-16.977c-31.472-77.236-52.358-158.074-58.723-241.355l-1.181-15.478h-224.73zm155.586 373.263a579.915 579.915 0 0 0 12.848 13.277c76.983 76.984 175.65 132.285 286.053 155.978-51.928-66.72-98.825-137.763-136.763-213.064l-6.288-12.48-13.406 3.945c-48.575 14.293-96.11 31.94-142.443 52.344zm367.184 179.66a583.46 583.46 0 0 0 29.773 1.96v-275.32l-17.537.821c-52.417 2.457-104.526 9.28-155.87 20.072l-21.717 4.562 10.335 19.636c42.853 81.422 96.392 157.486 155.016 228.268zm76.691 1.96a582.933 582.933 0 0 0 35.966-2.555c58.434-70.607 111.763-146.453 154.474-227.6l10.3-19.573-21.63-4.616c-53.23-11.358-107.3-18.277-161.687-20.448l-17.423-.695v275.486zm104.94-13.888c107.62-24.482 203.79-79.074 279.17-154.455a578.693 578.693 0 0 0 13.104-13.55c-44.537-20.134-90.3-37.506-137.11-51.614l-13.464-4.057-6.33 12.555c-37.61 74.574-84.008 144.966-135.37 211.121zm313.427-191.862c79.787-95.13 129.413-216.416 134.176-349.133h-219.03l-1.182 15.478c-6.38 83.509-27.365 164.558-58.976 241.984l-6.886 16.867 17.383 5.451c48.303 15.152 95.514 33.604 141.462 54.826l-6.946 14.526zm133.976-396.05c-6.3-142.54-64.366-271.624-155.862-368.907-39.652 17.106-80.198 32.113-121.528 44.693l-18.328 5.577 7.97 17.421c41.323 90.32 65.937 185.601 69.385 285.04l.56 16.175h217.804zm-820.028 295.644c-30.981-73.597-52.014-150.851-58.859-230.538l-1.561-18.19h281.188v232.493l-16.03.692c-62.514 2.701-124.571 11.366-185.545 25.37l-13.726 3.155-5.466-12.982zm29.081-599.156c57.79 12.707 116.53 20.597 175.655 23.152l16.032.693V998.11H718.3l.696-17.423c3.868-96.952 29.41-189.6 71.144-276.947l5.732-11.994 12.984 2.853zm445.705 609.193c-62.715-14.662-126.6-23.425-190.97-25.821l-16.13-.6v-232.343h286.89l-1.562 18.189c-6.853 79.769-27.945 157.104-58.974 230.765l-5.487 13.028-13.766-3.218zm8.88-600.247c41.794 87.4 67.39 180.115 71.265 277.142l.697 17.424h-287.942V718.59l16.13-.598c60.975-2.27 121.54-10.262 181.08-23.573l13.016-2.909 5.755 12.033z"/></g><path style="fill:none" d="M0 0h2048v2048H0z"/></svg>                                                                                   